<?xml version="1.0" standalone="no"?><!DOCTYPE svg PUBLIC "-//W3C//DTD SVG 1.1//EN" "http://www.w3.org/Graphics/SVG/1.1/DTD/svg11.dtd"><svg class="icon" height="512" viewBox="0 0 1024 1024" version="1.1" xmlns="http://www.w3.org/2000/svg"><path d="M999.321436 698.098465c-16.334014-14.826684-41.560558-13.595646-56.392358 2.698458-24.765033 27.348881-56.121182 51.421136-91.673909 72.414263l-77.804017-215.971843c127.223566 72.337515 179.801039-46.373167 179.801039-46.373167-89.322351-3.390213-92.212168-89.517803-92.212168-126.108163 0-36.59343-27.614941-108.659769-105.767905-89.517803-63.016219 15.44783-88.975451 110.702288-88.824001 140.323932L435.338504 435.564144c-5.626137-2.387373-28.504194-39.750329-37.134759-54.81135L230.421438 87.742367c0 0-79.96524 10.363022-49.879014 114.088408-7.05365 3.276626-13.829983 7.322779-20.185738 12.249999L53.469284 296.742425C6.437108 333.10254-2.268158 401.357064 34.095028 448.38924c36.360116 47.029106 104.613616 55.734372 151.641699 19.374256l35.553751-28.194132 50.074466 88.898703c8.318456 14.400988 9.016351 31.970132 1.886977 46.988174l-76.955696 210.352869c-36.168758-19.340487-68.870554-41.757033-95.990215-67.715241-15.906272-15.138792-41.172725-14.59951-56.425104 1.424442-15.220656 15.981996-14.598486 41.407062 1.384533 56.659441C152.305313 878.478695 324.291362 936.25661 510.254751 936.25661c201.296609 0 386.954029-65.828264 491.76105-181.573405C1016.807692 738.311329 1015.615541 712.969151 999.321436 698.098465L999.321436 698.098465zM435.338504 512.598634l192.592366 0 0 38.518269L435.338504 551.116903 435.338504 512.598634 435.338504 512.598634zM353.061616 842.195328c15.099906-83.157955 87.514169-146.287761 174.9915-146.287761 84.928275 0 155.685805 59.509349 173.558871 139.04787-59.934021 15.832594-124.799354 24.342408-191.010335 24.342408C455.904912 859.259982 403.06138 853.021907 353.061616 842.195328L353.061616 842.195328zM353.061616 842.195328" /></svg>