<?xml version="1.0" standalone="no"?><!DOCTYPE svg PUBLIC "-//W3C//DTD SVG 1.1//EN" "http://www.w3.org/Graphics/SVG/1.1/DTD/svg11.dtd"><svg class="icon" height="512" viewBox="0 0 1024 1024" version="1.1" xmlns="http://www.w3.org/2000/svg"><path d="M308.217 414.24c-37.426 0-67.873 30.448-67.873 67.873s30.447 67.873 67.873 67.873c37.424 0 67.872-30.447 67.872-67.873s-30.447-67.873-67.872-67.873z m0 95.73c-15.36 0-27.858-12.496-27.858-27.857 0-15.36 12.497-27.857 27.858-27.857 15.36 0 27.856 12.496 27.856 27.857 0 15.36-12.495 27.858-27.856 27.858zM555.413 259.795c51.426 0 93.263-41.837 93.263-93.263s-41.837-93.263-93.263-93.263c-51.425 0-93.262 41.837-93.262 93.263-0.001 51.426 41.837 93.263 93.262 93.263z m0-146.51c29.36 0 53.247 23.886 53.247 53.247 0 29.36-23.887 53.248-53.247 53.248-29.361 0-53.247-23.887-53.247-53.248-0.001-29.36 23.885-53.248 53.247-53.248z" fill="" /><path d="M962.026 565.827c0-165.918-116.8-295.623-277.784-308.603-1.727-0.222-3.465-0.446-5.214-0.676-7.752-1.025-15.77-2.073-24.287-2.667-7.991-0.563-15.546 3.727-19.198 10.856l-26.146 51.073H501.644l-27.015-54.881c-3.369-6.835-10.313-11.203-17.933-11.203-21.883 0-42.528 1.115-62.004 3.342l-104.126-75.764a20.008 20.008 0 0 0-30.494 9.122l-63.412 168.25c-0.138 0.368-0.24 0.739-0.355 1.11-24.487 32.021-44.312 72.656-61.651 125.6l-54.597 10.35c-9.449 1.786-16.068 10.042-16.068 19.658v129.69c0 6.713 3.26 12.978 8.857 16.683l61.457 40.756c25.521 62.08 88.299 109.68 153.79 117.96v107.478c0 11.048 8.496 20.158 19.546 20.158h124.047c11.05 0 20.136-9.11 20.136-20.158v-35.106c31.723 9.815 57.24 15.53 102.036 15.53 38.625 0 64.763-4.195 93.416-11.37v30.946c0 11.048 9.452 20.158 20.502 20.158h126.048c11.05 0 20.248-9.11 20.248-20.158v-99.714c94.144-46.194 146.932-136.258 147.83-255.299 0.161-1.016 0.124-2.059 0.124-3.121zM288.256 225.11l52.053 37.875c-29.53 7.658-55.715 18.668-78.801 33.095l26.748-70.97z m633.567 340.714c0 53.515-11.31 100.115-33.699 138.506-23.05 39.524-57.334 69.379-102.071 88.737-7.322 3.17-11.89 10.385-11.89 18.363v92.78h-85.957v-36.99c0-6.21-3.091-12.069-8.012-15.856-4.923-3.788-11.533-5.074-17.534-3.485-39.76 10.532-64.4 16.49-108.604 16.49-48.09 0-69.312-6.83-111.621-20.44l-4.571-1.478a19.867 19.867 0 0 0-17.848 2.882c-5.165 3.765-8.103 9.773-8.103 16.166v42.71h-83.91V797.757c0-11.048-9.094-20.007-20.144-20.007-57.337 0-118.275-43.595-138.558-99.25-1.467-4.022-4.1-7.469-7.67-9.832l-57.733-38.333V527.973l49.97-9.484c7.274-1.376 13.024-6.656 15.22-13.726 23.583-75.941 51.275-124.473 89.786-157.358 32.709-27.929 75.4-45.523 129.438-53.193 2.78 0.21 5.572-0.147 8.195-1.072 15.07-1.824 30.977-2.921 47.78-3.275l26.965 54.705a19.997 19.997 0 0 0 17.947 11.15h132.426c7.508 0 14.383-4.19 17.806-10.873l25.51-49.776c2.973 0.362 5.931 0.752 8.847 1.137 1.965 0.26 3.917 0.517 5.855 0.765 0.317 0.04 0.639 0.073 0.957 0.098 68.552 5.421 130.452 35.683 174.284 85.21 42.678 48.225 66.466 112.254 67.13 180.593-0.139 0.963-0.191 1.947-0.191 2.95z" fill="" /></svg>